<mxfile host="65bd71144e">
    <diagram id="Zv2DcNRsbunIRYGTYdQl" name="Page-1">
        <mxGraphModel dx="566" dy="510" grid="1" gridSize="10" guides="1" tooltips="1" connect="1" arrows="1" fold="1" page="1" pageScale="1" pageWidth="850" pageHeight="1100" math="0" shadow="0">
            <root>
                <mxCell id="0"/>
                <mxCell id="1" parent="0"/>
                <mxCell id="wroJR9BJybs-AFcNoRKy-3" value="" style="edgeStyle=orthogonalEdgeStyle;rounded=0;orthogonalLoop=1;jettySize=auto;html=1;" parent="1" source="wroJR9BJybs-AFcNoRKy-1" edge="1">
                    <mxGeometry relative="1" as="geometry">
                        <mxPoint x="425" y="130" as="targetPoint"/>
                    </mxGeometry>
                </mxCell>
                <mxCell id="wroJR9BJybs-AFcNoRKy-1" value="START" style="rounded=1;whiteSpace=wrap;html=1;" parent="1" vertex="1">
                    <mxGeometry x="373" y="60" width="105" height="40" as="geometry"/>
                </mxCell>
                <mxCell id="wroJR9BJybs-AFcNoRKy-13" style="edgeStyle=orthogonalEdgeStyle;rounded=0;orthogonalLoop=1;jettySize=auto;html=1;exitX=0.5;exitY=1;exitDx=0;exitDy=0;entryX=0.5;entryY=0;entryDx=0;entryDy=0;" parent="1" edge="1">
                    <mxGeometry relative="1" as="geometry">
                        <mxPoint x="425" y="180" as="sourcePoint"/>
                        <mxPoint x="425" y="220" as="targetPoint"/>
                    </mxGeometry>
                </mxCell>
                <mxCell id="wroJR9BJybs-AFcNoRKy-17" value="computer generates random word" style="rounded=0;whiteSpace=wrap;html=1;" parent="1" vertex="1">
                    <mxGeometry x="365.5" y="130" width="120" height="60" as="geometry"/>
                </mxCell>
                <mxCell id="wroJR9BJybs-AFcNoRKy-21" value="" style="edgeStyle=orthogonalEdgeStyle;rounded=0;orthogonalLoop=1;jettySize=auto;html=1;" parent="1" source="wroJR9BJybs-AFcNoRKy-19" target="wroJR9BJybs-AFcNoRKy-20" edge="1">
                    <mxGeometry relative="1" as="geometry"/>
                </mxCell>
                <mxCell id="wroJR9BJybs-AFcNoRKy-19" value="computer displays blanks for characters in word" style="rounded=0;whiteSpace=wrap;html=1;" parent="1" vertex="1">
                    <mxGeometry x="366" y="220" width="120" height="60" as="geometry"/>
                </mxCell>
                <mxCell id="wroJR9BJybs-AFcNoRKy-23" value="" style="edgeStyle=orthogonalEdgeStyle;rounded=0;orthogonalLoop=1;jettySize=auto;html=1;" parent="1" source="wroJR9BJybs-AFcNoRKy-20" target="wroJR9BJybs-AFcNoRKy-22" edge="1">
                    <mxGeometry relative="1" as="geometry"/>
                </mxCell>
                <mxCell id="wroJR9BJybs-AFcNoRKy-20" value="user guesses one character in list or word" style="rounded=0;whiteSpace=wrap;html=1;" parent="1" vertex="1">
                    <mxGeometry x="366" y="320" width="120" height="60" as="geometry"/>
                </mxCell>
                <mxCell id="wroJR9BJybs-AFcNoRKy-28" style="edgeStyle=orthogonalEdgeStyle;rounded=0;orthogonalLoop=1;jettySize=auto;html=1;exitX=1;exitY=1;exitDx=0;exitDy=0;" parent="1" source="wroJR9BJybs-AFcNoRKy-22" edge="1">
                    <mxGeometry relative="1" as="geometry">
                        <mxPoint x="530" y="560" as="targetPoint"/>
                    </mxGeometry>
                </mxCell>
                <mxCell id="wroJR9BJybs-AFcNoRKy-22" value="&lt;div&gt;is the guessed&lt;/div&gt;&lt;div&gt; letter in the word?&lt;/div&gt;" style="rhombus;whiteSpace=wrap;html=1;" parent="1" vertex="1">
                    <mxGeometry x="346" y="410" width="160" height="100" as="geometry"/>
                </mxCell>
                <mxCell id="wroJR9BJybs-AFcNoRKy-39" style="edgeStyle=orthogonalEdgeStyle;rounded=0;orthogonalLoop=1;jettySize=auto;html=1;exitX=0.5;exitY=1;exitDx=0;exitDy=0;" parent="1" source="wroJR9BJybs-AFcNoRKy-25" edge="1">
                    <mxGeometry relative="1" as="geometry">
                        <mxPoint x="313" y="670" as="targetPoint"/>
                    </mxGeometry>
                </mxCell>
                <mxCell id="wroJR9BJybs-AFcNoRKy-25" value="replace blank(s) with character guessed" style="rounded=1;whiteSpace=wrap;html=1;" parent="1" vertex="1">
                    <mxGeometry x="253" y="570" width="120" height="60" as="geometry"/>
                </mxCell>
                <mxCell id="wroJR9BJybs-AFcNoRKy-47" style="edgeStyle=orthogonalEdgeStyle;rounded=0;orthogonalLoop=1;jettySize=auto;html=1;exitX=0.5;exitY=1;exitDx=0;exitDy=0;" parent="1" source="wroJR9BJybs-AFcNoRKy-26" edge="1">
                    <mxGeometry relative="1" as="geometry">
                        <mxPoint x="311" y="570" as="targetPoint"/>
                    </mxGeometry>
                </mxCell>
                <mxCell id="wroJR9BJybs-AFcNoRKy-26" value="Yes" style="text;html=1;strokeColor=none;fillColor=none;align=center;verticalAlign=middle;whiteSpace=wrap;rounded=0;" parent="1" vertex="1">
                    <mxGeometry x="280" y="510" width="60" height="30" as="geometry"/>
                </mxCell>
                <mxCell id="wroJR9BJybs-AFcNoRKy-27" value="" style="edgeStyle=orthogonalEdgeStyle;rounded=0;orthogonalLoop=1;jettySize=auto;html=1;exitX=0;exitY=1;exitDx=0;exitDy=0;endArrow=none;" parent="1" source="wroJR9BJybs-AFcNoRKy-22" target="wroJR9BJybs-AFcNoRKy-26" edge="1">
                    <mxGeometry relative="1" as="geometry">
                        <mxPoint x="320" y="570" as="targetPoint"/>
                        <mxPoint x="386" y="485" as="sourcePoint"/>
                    </mxGeometry>
                </mxCell>
                <mxCell id="wroJR9BJybs-AFcNoRKy-31" value="" style="edgeStyle=orthogonalEdgeStyle;rounded=0;orthogonalLoop=1;jettySize=auto;html=1;entryX=0.5;entryY=0;entryDx=0;entryDy=0;" parent="1" source="wroJR9BJybs-AFcNoRKy-29" target="wroJR9BJybs-AFcNoRKy-45" edge="1">
                    <mxGeometry relative="1" as="geometry">
                        <mxPoint x="525" y="650" as="targetPoint"/>
                        <Array as="points">
                            <mxPoint x="525" y="630"/>
                            <mxPoint x="525" y="630"/>
                        </Array>
                    </mxGeometry>
                </mxCell>
                <mxCell id="wroJR9BJybs-AFcNoRKy-29" value="user looses a strike" style="rounded=1;whiteSpace=wrap;html=1;" parent="1" vertex="1">
                    <mxGeometry x="470" y="560" width="120" height="60" as="geometry"/>
                </mxCell>
                <mxCell id="wroJR9BJybs-AFcNoRKy-32" style="edgeStyle=orthogonalEdgeStyle;rounded=0;orthogonalLoop=1;jettySize=auto;html=1;exitX=1;exitY=0.5;exitDx=0;exitDy=0;entryX=1;entryY=0.5;entryDx=0;entryDy=0;" parent="1" target="wroJR9BJybs-AFcNoRKy-20" edge="1">
                    <mxGeometry relative="1" as="geometry">
                        <mxPoint x="750" y="410" as="targetPoint"/>
                        <mxPoint x="580" y="700" as="sourcePoint"/>
                        <Array as="points">
                            <mxPoint x="630" y="700"/>
                            <mxPoint x="630" y="350"/>
                        </Array>
                    </mxGeometry>
                </mxCell>
                <mxCell id="wroJR9BJybs-AFcNoRKy-35" style="edgeStyle=orthogonalEdgeStyle;rounded=0;orthogonalLoop=1;jettySize=auto;html=1;exitX=0;exitY=0.5;exitDx=0;exitDy=0;" parent="1" edge="1">
                    <mxGeometry relative="1" as="geometry">
                        <mxPoint x="450" y="780" as="targetPoint"/>
                        <mxPoint x="470" y="700" as="sourcePoint"/>
                    </mxGeometry>
                </mxCell>
                <mxCell id="wroJR9BJybs-AFcNoRKy-33" value="No" style="text;html=1;strokeColor=none;fillColor=none;align=center;verticalAlign=middle;whiteSpace=wrap;rounded=0;" parent="1" vertex="1">
                    <mxGeometry x="486" y="500" width="60" height="30" as="geometry"/>
                </mxCell>
                <mxCell id="wroJR9BJybs-AFcNoRKy-34" value="Yes" style="text;html=1;strokeColor=none;fillColor=none;align=center;verticalAlign=middle;whiteSpace=wrap;rounded=0;" parent="1" vertex="1">
                    <mxGeometry x="580" y="660" width="60" height="20" as="geometry"/>
                </mxCell>
                <mxCell id="wroJR9BJybs-AFcNoRKy-36" value="GAME OVER" style="rounded=1;whiteSpace=wrap;html=1;" parent="1" vertex="1">
                    <mxGeometry x="366" y="780" width="120" height="60" as="geometry"/>
                </mxCell>
                <mxCell id="wroJR9BJybs-AFcNoRKy-37" value="No" style="text;html=1;strokeColor=none;fillColor=none;align=center;verticalAlign=middle;whiteSpace=wrap;rounded=0;" parent="1" vertex="1">
                    <mxGeometry x="425" y="680" width="60" height="30" as="geometry"/>
                </mxCell>
                <mxCell id="wroJR9BJybs-AFcNoRKy-41" style="edgeStyle=orthogonalEdgeStyle;rounded=0;orthogonalLoop=1;jettySize=auto;html=1;exitX=1;exitY=0.5;exitDx=0;exitDy=0;entryX=0.358;entryY=-0.033;entryDx=0;entryDy=0;entryPerimeter=0;" parent="1" source="wroJR9BJybs-AFcNoRKy-40" target="wroJR9BJybs-AFcNoRKy-36" edge="1">
                    <mxGeometry relative="1" as="geometry"/>
                </mxCell>
                <mxCell id="wroJR9BJybs-AFcNoRKy-43" style="edgeStyle=orthogonalEdgeStyle;rounded=0;orthogonalLoop=1;jettySize=auto;html=1;exitX=0;exitY=0.5;exitDx=0;exitDy=0;entryX=0;entryY=0.5;entryDx=0;entryDy=0;" parent="1" source="wroJR9BJybs-AFcNoRKy-40" target="wroJR9BJybs-AFcNoRKy-20" edge="1">
                    <mxGeometry relative="1" as="geometry">
                        <Array as="points">
                            <mxPoint x="220" y="710"/>
                            <mxPoint x="220" y="350"/>
                        </Array>
                    </mxGeometry>
                </mxCell>
                <mxCell id="wroJR9BJybs-AFcNoRKy-40" value="is word complete?" style="rhombus;whiteSpace=wrap;html=1;" parent="1" vertex="1">
                    <mxGeometry x="273" y="670" width="80" height="80" as="geometry"/>
                </mxCell>
                <mxCell id="wroJR9BJybs-AFcNoRKy-42" value="Yes" style="text;html=1;strokeColor=none;fillColor=none;align=center;verticalAlign=middle;whiteSpace=wrap;rounded=0;" parent="1" vertex="1">
                    <mxGeometry x="353" y="680" width="60" height="30" as="geometry"/>
                </mxCell>
                <mxCell id="wroJR9BJybs-AFcNoRKy-44" value="No" style="text;html=1;strokeColor=none;fillColor=none;align=center;verticalAlign=middle;whiteSpace=wrap;rounded=0;" parent="1" vertex="1">
                    <mxGeometry x="220" y="680" width="60" height="30" as="geometry"/>
                </mxCell>
                <mxCell id="wroJR9BJybs-AFcNoRKy-45" value="does user have lives?" style="rhombus;whiteSpace=wrap;html=1;" parent="1" vertex="1">
                    <mxGeometry x="470" y="650" width="110" height="100" as="geometry"/>
                </mxCell>
            </root>
        </mxGraphModel>
    </diagram>
</mxfile>